<?xml version="1.0" encoding="UTF-8"?>
<svg width="55px" height="38px" viewBox="0 0 55 38" version="1.1" xmlns="http://www.w3.org/2000/svg" xmlns:xlink="http://www.w3.org/1999/xlink">
    <!-- Generator: Sketch 40.3 (33839) - http://www.bohemiancoding.com/sketch -->
    <title>Cloudy</title>
    <desc>Created with Sketch.</desc>
    <defs>
        <path d="M46.8154235,37 C50.681417,37 53.8154235,33.8659934 53.8154235,30 C53.8154235,26.1340066 50.681417,23 46.8154235,23 C43.2889514,23 40.371542,25.6077057 39.8863124,29 L39.8154235,29 C39.8154235,25.1850174 42.8672709,22.0828323 46.662779,22.0016314 C45.701457,15.7706523 40.3155634,11 33.8154235,11 C28.7242313,11 24.3165961,13.9266538 22.1831183,18.1893611 C24.2796828,18.7842712 25.8154235,20.7127897 25.8154235,23 C25.8154235,23.3261971 25.7841868,23.6450985 25.7245413,23.9538761 C25.2295948,21.1388894 22.7722915,19 19.8154235,19 C17.1999807,19 14.9753952,20.6734584 14.1539981,23.0080444 C14.0418115,23.0027017 13.928933,23 13.8154235,23 C9.94943007,23 6.81542351,26.1340066 6.81542351,30 C6.81542351,33.8659934 9.94943007,37 13.8154235,37 L46.8154235,37 Z" id="path-1"></path>
        <mask id="mask-2" maskContentUnits="userSpaceOnUse" maskUnits="objectBoundingBox" x="-2" y="-2" width="51" height="30">
            <rect x="4.81542351" y="9" width="51" height="30" fill="white"></rect>
            <use xlink:href="#path-1" fill="black"></use>
        </mask>
    </defs>
    <g id="Page-1" stroke="none" stroke-width="1" fill="none" fill-rule="evenodd">
        <g id="Cloudy" transform="translate(-1.000000, -1.000000)">
            <use id="Cloud" stroke="#FFFFFF" mask="url(#mask-2)" stroke-width="4" xlink:href="#path-1"></use>
            <g id="Sun" transform="translate(0.823009, 0.500000)" fill="#FFFFFF">
                <path d="M26.0317372,10.7844241 C24.2377227,9.35455811 21.9648651,8.5 19.4924147,8.5 C13.6934245,8.5 8.99241466,13.2010098 8.99241466,19 C8.99241466,19.9055536 9.10704902,20.784333 9.32259775,21.6226181 L10.9393173,21.25 L11.2792764,21.1977646 C11.0921609,20.4967247 10.9924147,19.7600108 10.9924147,19 C10.9924147,14.3055794 14.7979941,10.5 19.4924147,10.5 C21.2600792,10.5 22.9017179,11.0395808 24.2616082,11.9630201 L26.0317372,10.7844241 Z" id="Oval-16"></path>
                <path d="M19.9924147,0.5 C19.4401299,0.5 18.9924147,0.943716645 18.9924147,1.49980749 L18.9924147,4.50019251 C18.9924147,5.05237094 19.4362795,5.5 19.9924147,5.5 C20.5446994,5.5 20.9924147,5.05628335 20.9924147,4.50019251 L20.9924147,1.49980749 C20.9924147,0.947629061 20.5485498,0.5 19.9924147,0.5 Z M29.5025194,3.0482249 C29.0242268,2.77208252 28.4146357,2.93249478 28.1365903,3.41408358 L26.6363978,6.01249323 C26.3603086,6.49069378 26.5208923,7.10028433 27.0025194,7.37835192 C27.4808121,7.65449429 28.0904032,7.49408203 28.3684486,7.01249323 L29.8686411,4.41408358 C30.1447303,3.93588304 29.9841466,3.32629249 29.5025194,3.0482249 Z M0.972205098,19.5202096 C0.972205098,20.0724943 1.41592174,20.5202096 1.97201259,20.5202096 L4.97239761,20.5202096 C5.52457604,20.5202096 5.9722051,20.0763447 5.9722051,19.5202096 C5.9722051,18.9679248 5.52848845,18.5202096 4.97239761,18.5202096 L1.97201259,18.5202096 C1.41983416,18.5202096 0.972205098,18.9640744 0.972205098,19.5202096 Z M3.52042999,10.0101048 C3.24428762,10.4883974 3.40469988,11.0979885 3.88628868,11.3760339 L6.48469833,12.8762264 C6.96289888,13.1523157 7.57248942,12.991732 7.85055701,12.5101048 C8.12669939,12.0318122 7.96628713,11.4222211 7.48469833,11.1441756 L4.88628868,9.64398313 C4.40808813,9.36789391 3.79849758,9.52847759 3.52042999,10.0101048 Z M10.4823099,3.0482249 C10.0040173,3.32436727 9.8381428,3.93249478 10.1161882,4.41408358 L11.6163807,7.01249323 C11.8924699,7.49069378 12.5006827,7.6564195 12.9823099,7.37835192 C13.4606025,7.10220954 13.626477,6.49408203 13.3484315,6.01249323 L11.848239,3.41408358 C11.5721498,2.93588304 10.9639371,2.77015731 10.4823099,3.0482249 Z" id="Rectangle-69"></path>
            </g>
        </g>
    </g>
</svg>