<?xml version="1.0" encoding="UTF-8"?>
<svg width="52px" height="38px" viewBox="0 0 52 38" version="1.1" xmlns="http://www.w3.org/2000/svg" xmlns:xlink="http://www.w3.org/1999/xlink">
    <!-- Generator: Sketch 40.3 (33839) - http://www.bohemiancoding.com/sketch -->
    <title>Foggy</title>
    <desc>Created with Sketch.</desc>
    <defs>
        <path d="M40.6586599,26.5 C44.5246534,26.5 47.6586599,23.3659934 47.6586599,19.5 C47.6586599,15.6340066 44.5246534,12.5 40.6586599,12.5 C37.1321878,12.5 34.2147784,15.1077057 33.7295488,18.5 L33.6586599,18.5 C33.6586599,14.6850174 36.7105073,11.5828323 40.5060154,11.5016314 C39.5446934,5.2706523 34.1587998,0.5 27.6586599,0.5 C22.5674677,0.5 18.1598325,3.42665381 16.0263547,7.68936105 C18.1229192,8.28427116 19.6586599,10.2127897 19.6586599,12.5 C19.6586599,12.8261971 19.6274232,13.1450985 19.5677777,13.4538761 C19.0728312,10.6388894 16.6155279,8.5 13.6586599,8.5 C11.0432171,8.5 8.81863164,10.1734584 7.9972345,12.5080444 C7.88504786,12.5027017 7.7721694,12.5 7.65865992,12.5 C3.79266648,12.5 0.658659924,15.6340066 0.658659924,19.5 C0.658659924,23.3659934 3.79266648,26.5 7.65865992,26.5 L40.6586599,26.5 Z" id="path-1"></path>
        <mask id="mask-2" maskContentUnits="userSpaceOnUse" maskUnits="objectBoundingBox" x="-2" y="-2" width="51" height="30">
            <rect x="-1.34134008" y="-1.5" width="51" height="30" fill="white"></rect>
            <use xlink:href="#path-1" fill="black"></use>
        </mask>
    </defs>
    <g id="Page-1" stroke="none" stroke-width="1" fill="none" fill-rule="evenodd">
        <g id="Foggy" transform="translate(2.000000, 2.000000)" stroke="#FFFFFF">
            <use id="Cloud" mask="url(#mask-2)" stroke-width="4" xlink:href="#path-1"></use>
            <path d="M2.65865992,31.4444444 C5.93362976,31.4444444 5.34787694,32.4444444 8.02869383,32.4444445 C10.7095107,32.4444445 10.5562319,31.4444444 13.3993323,31.4444445 C16.2424326,31.4444445 16.5943367,32.4444445 18.769708,32.4444445 C20.9450793,32.4444445 21.3495567,31.4444445 24.1396382,31.4444444 C26.9297197,31.4444444 26.7198012,32.4444445 29.5098828,32.4444444 C32.2999643,32.4444444 32.0900458,31.4444445 34.8801273,31.4444444 C37.6702088,31.4444444 37.4602904,32.4444445 40.2503719,32.4444444 C43.0404534,32.4444444 41.8305349,31.4444444 45.6206164,31.4444444" id="Line" stroke-linecap="square"></path>
            <path d="M2.65865992,34.4444444 C5.93362976,34.4444444 5.34787694,35.4444444 8.02869383,35.4444445 C10.7095107,35.4444445 10.5562319,34.4444444 13.3993323,34.4444445 C16.2424326,34.4444445 16.5943367,35.4444445 18.769708,35.4444445 C20.9450793,35.4444445 21.3495567,34.4444445 24.1396382,34.4444444 C26.9297197,34.4444444 26.7198012,35.4444445 29.5098828,35.4444444 C32.2999643,35.4444444 32.0900458,34.4444445 34.8801273,34.4444444 C37.6702088,34.4444444 37.4602904,35.4444445 40.2503719,35.4444444 C43.0404534,35.4444444 41.8305349,34.4444444 45.6206164,34.4444444" id="Line" stroke-linecap="square"></path>
        </g>
    </g>
</svg>