<?xml version="1.0" encoding="UTF-8"?>
<svg width="41px" height="36px" viewBox="0 0 41 36" version="1.1" xmlns="http://www.w3.org/2000/svg" xmlns:xlink="http://www.w3.org/1999/xlink">
    <!-- Generator: Sketch 40.3 (33839) - http://www.bohemiancoding.com/sketch -->
    <title>Snowflake</title>
    <desc>Created with Sketch.</desc>
    <defs></defs>
    <g id="Page-1" stroke="none" stroke-width="1" fill="none" fill-rule="evenodd">
        <g id="Snowflake" fill="#FFFFFF">
            <path d="M16.5167361,21.8219127 L14.0827442,26.0377104 L7.51919469,29.5276115 C7.31043393,29.6386116 7.23218293,29.8997092 7.3407095,30.103818 L7.92758056,31.2075619 C8.03776668,31.4147918 8.29593477,31.4930086 8.50508497,31.3818015 L12.1013103,29.4696546 L9.31019364,34.3040104 C9.19512951,34.5033073 9.2696863,34.7617688 9.46988324,34.8773526 L10.5524733,35.5023862 C10.7557316,35.6197374 11.019231,35.5438708 11.128847,35.3540104 L13.9298316,30.5025627 L13.9298316,34.5558038 C13.9298316,34.79224 14.1236304,34.9839094 14.354798,34.9839094 L15.6048653,34.9839094 C15.8395677,34.9839094 16.0298316,34.792681 16.0298316,34.5558038 L16.0298316,27.012015 C16.0298316,26.971089 16.024025,26.9315043 16.0132231,26.8940228 L18.3475018,22.8509334 C18.8526729,23.0126779 19.3911388,23.1 19.95,23.1 C20.5538448,23.1 21.1338789,22.9980547 21.6738303,22.8104364 L24.1433155,27.0877104 L23.8838839,34.5168616 C23.8756324,34.7531537 24.062624,34.9514698 24.2936507,34.9595375 L25.5429565,35.0031642 C25.7775159,35.0113552 25.9743377,34.8268835 25.9826046,34.5901505 L26.1247495,30.5196546 L28.9158661,35.3540104 C29.0309302,35.5533073 29.2920428,35.61797 29.4922398,35.5023862 L30.5748298,34.8773526 C30.7780881,34.7600014 30.8441354,34.4938708 30.7345194,34.3040104 L27.9335348,29.4525627 L31.4437445,31.4791832 C31.6485043,31.5974013 31.9113943,31.5254013 32.026978,31.3252044 L32.6520117,30.2426143 C32.7693629,30.0393561 32.6988862,29.7789685 32.4937445,29.6605299 L25.9606318,25.8886355 C25.9251888,25.8681725 25.8880042,25.8534088 25.8501433,25.8440228 L23.4789829,21.7370525 C24.2894808,21.0007783 24.8687516,20.0144893 25.094981,18.9 L30.0829279,18.9 L36.3870457,22.83925 C36.587555,22.9645421 36.8527976,22.9017607 36.9752977,22.7057195 L37.6377325,21.6456023 C37.7621058,21.4465634 37.7007595,21.1838748 37.4998762,21.058349 L34.0457957,18.9 L39.628029,18.9 C39.8581572,18.9 40.0447131,18.7062012 40.0447131,18.4750337 L40.0447131,17.2249663 C40.0447131,16.9902639 39.8472609,16.8 39.628029,16.8 L34.0260597,16.8 L37.5362694,14.7733795 C37.7410292,14.6551614 37.8101203,14.391492 37.6945366,14.191295 L37.0695029,13.108705 C36.9521517,12.9054467 36.6914112,12.8362875 36.4862694,12.9547261 L29.9531567,16.7266205 C29.9177137,16.7470835 29.8863357,16.7719045 29.8592767,16.8 L25.094981,16.8 C24.8687516,15.6855107 24.2894808,14.6992217 23.4789829,13.9629475 L25.9619689,9.66228962 L32.5255184,6.17238845 C32.7342791,6.06138838 32.8125301,5.80029084 32.7040036,5.59618205 L32.1171325,4.49243811 C32.0069464,4.28520817 31.7487783,4.20699137 31.5396281,4.31819851 L27.9434028,6.23034541 L30.7345194,1.39598962 C30.8495836,1.19669268 30.7750268,0.938231184 30.5748298,0.82264743 L29.4922398,0.197613766 C29.2889815,0.0802625526 29.025482,0.156129183 28.9158661,0.345989617 L26.1148815,5.19743729 L26.1148815,1.14419623 C26.1148815,0.907760044 25.9210826,0.716090642 25.6899151,0.716090642 L24.4398478,0.716090642 C24.2051454,0.716090642 24.0148815,0.907318984 24.0148815,1.14419623 L24.0148815,8.68798505 C24.0148815,8.72891104 24.020688,8.76849572 24.0314899,8.80597723 L21.6738303,12.8895636 C21.1338789,12.7019453 20.5538448,12.6 19.95,12.6 C19.3911388,12.6 18.8526729,12.6873221 18.3475018,12.8490666 L15.9013975,8.61228962 L16.1608292,1.18313844 C16.1690807,0.946846283 15.9820891,0.748530158 15.7510624,0.740462529 L14.5017566,0.696835808 C14.2671971,0.688644812 14.0703754,0.873116548 14.0621085,1.1098495 L13.9199636,5.18034541 L11.128847,0.345989617 C11.0137829,0.146692684 10.7526702,0.0820300121 10.5524733,0.197613766 L9.46988324,0.82264743 C9.26662497,0.939998643 9.20057767,1.20612918 9.31019364,1.39598962 L12.1111783,6.24743729 L8.60096854,4.22081676 C8.39620879,4.10259867 8.13331881,4.17459868 8.01773506,4.37479561 L7.39270139,5.45738567 C7.27535018,5.66064394 7.34582683,5.92103149 7.55096854,6.03947011 L14.0840813,9.81136452 C14.1195242,9.83182751 14.1567089,9.8465912 14.1945698,9.85597723 L16.5167361,13.8780873 C15.6561644,14.6226102 15.040057,15.6421161 14.805019,16.8 L9.96178517,16.8 L3.65766736,12.86075 C3.4571581,12.7354579 3.19191549,12.7982393 3.06941538,12.9942805 L2.40698062,14.0543977 C2.28260728,14.2534366 2.3439536,14.5161252 2.5448369,14.641651 L5.99891734,16.8 L0.416684103,16.8 C0.186555827,16.8 0,16.9937988 0,17.2249663 L0,18.4750337 C0,18.7097361 0.197452158,18.9 0.416684103,18.9 L6.01865335,18.9 L2.50844362,20.9266205 C2.30368388,21.0448386 2.23459272,21.308508 2.35017647,21.508705 L2.97521014,22.591295 C3.09256135,22.7945533 3.35330191,22.8637125 3.55844362,22.7452739 L10.0915564,18.9733795 C10.1269993,18.9529165 10.1583774,18.9280955 10.1854364,18.9 L14.805019,18.9 C15.040057,20.0578839 15.6561644,21.0773898 16.5167361,21.8219127 Z M19.95,21 C21.689697,21 23.1,19.589697 23.1,17.85 C23.1,16.110303 21.689697,14.7 19.95,14.7 C18.210303,14.7 16.8,16.110303 16.8,17.85 C16.8,19.589697 18.210303,21 19.95,21 Z" id="Rectangle-68"></path>
        </g>
    </g>
</svg>