<?xml version="1.0" encoding="UTF-8"?>
<svg width="38px" height="39px" viewBox="0 0 38 39" version="1.1" xmlns="http://www.w3.org/2000/svg" xmlns:xlink="http://www.w3.org/1999/xlink">
    <!-- Generator: Sketch 40.3 (33839) - http://www.bohemiancoding.com/sketch -->
    <title>Sunny</title>
    <desc>Created with Sketch.</desc>
    <defs></defs>
    <g id="Page-1" stroke="none" stroke-width="1" fill="none" fill-rule="evenodd">
        <g id="Sunny" transform="translate(-1.000000, 0.000000)">
            <path d="M19.9924147,29.5 C25.5152624,29.5 29.9924147,25.0228478 29.9924147,19.5 C29.9924147,13.9771522 25.5152624,9.5 19.9924147,9.5 C14.4695669,9.5 9.99241466,13.9771522 9.99241466,19.5 C9.99241466,25.0228478 14.4695669,29.5 19.9924147,29.5 Z" id="Oval-16" stroke="#FFFFFF" stroke-width="2"></path>
            <path d="M19.9924147,0.5 C19.4401299,0.5 18.9924147,0.943716645 18.9924147,1.49980749 L18.9924147,4.50019251 C18.9924147,5.05237094 19.4362795,5.5 19.9924147,5.5 C20.5446994,5.5 20.9924147,5.05628335 20.9924147,4.50019251 L20.9924147,1.49980749 C20.9924147,0.947629061 20.5485498,0.5 19.9924147,0.5 Z M29.5025194,3.0482249 C29.0242268,2.77208252 28.4146357,2.93249478 28.1365903,3.41408358 L26.6363978,6.01249323 C26.3603086,6.49069378 26.5208923,7.10028433 27.0025194,7.37835192 C27.4808121,7.65449429 28.0904032,7.49408203 28.3684486,7.01249323 L29.8686411,4.41408358 C30.1447303,3.93588304 29.9841466,3.32629249 29.5025194,3.0482249 Z M36.4643993,10.0101048 C36.188257,9.53181216 35.5801294,9.3659377 35.0985406,9.64398313 L32.500131,11.1441756 C32.0219305,11.4202648 31.8562047,12.0284776 32.1342723,12.5101048 C32.4104147,12.9883974 33.0185422,13.1542719 33.500131,12.8762264 L36.0985406,11.3760339 C36.5767412,11.0999447 36.7424669,10.491732 36.4643993,10.0101048 Z M39.0126242,19.5202096 C39.0126242,18.9679248 38.5689076,18.5202096 38.0128167,18.5202096 L35.0124317,18.5202096 C34.4602533,18.5202096 34.0126242,18.9640744 34.0126242,19.5202096 C34.0126242,20.0724943 34.4563409,20.5202096 35.0124317,20.5202096 L38.0128167,20.5202096 C38.5649952,20.5202096 39.0126242,20.0763447 39.0126242,19.5202096 Z M36.4643993,29.0303144 C36.7405417,28.5520217 36.5801294,27.9424306 36.0985406,27.6643852 L33.500131,26.1641927 C33.0219305,25.8881035 32.4123399,26.0486872 32.1342723,26.5303144 C31.8581299,27.008607 32.0185422,27.6181981 32.500131,27.8962435 L35.0985406,29.396436 C35.5767412,29.6725252 36.1863317,29.5119415 36.4643993,29.0303144 Z M29.5025194,35.9921942 C29.9808121,35.7160519 30.1466865,35.1079244 29.8686411,34.6263356 L28.3684486,32.0279259 C28.0923594,31.5497254 27.4841466,31.3839996 27.0025194,31.6620672 C26.5242268,31.9382096 26.3583524,32.5463371 26.6363978,33.0279259 L28.1365903,35.6263356 C28.4126795,36.1045361 29.0208923,36.2702618 29.5025194,35.9921942 Z M19.9924147,38.5404191 C20.5446994,38.5404191 20.9924147,38.0967025 20.9924147,37.5406116 L20.9924147,34.5402266 C20.9924147,33.9880482 20.5485498,33.5404191 19.9924147,33.5404191 C19.4401299,33.5404191 18.9924147,33.9841358 18.9924147,34.5402266 L18.9924147,37.5406116 C18.9924147,38.0927901 19.4362795,38.5404191 19.9924147,38.5404191 Z M10.4823099,35.9921942 C10.9606025,36.2683366 11.5701936,36.1079244 11.848239,35.6263356 L13.3484315,33.0279259 C13.6245208,32.5497254 13.4639371,31.9401348 12.9823099,31.6620672 C12.5040173,31.3859248 11.8944262,31.5463371 11.6163807,32.0279259 L10.1161882,34.6263356 C9.84009901,35.1045361 10.0006827,35.7141266 10.4823099,35.9921942 Z M3.52042999,29.0303144 C3.79657237,29.508607 4.40469988,29.6744814 4.88628868,29.396436 L7.48469833,27.8962435 C7.96289888,27.6201543 8.1286246,27.0119415 7.85055701,26.5303144 C7.57441464,26.0520217 6.96628713,25.8861473 6.48469833,26.1641927 L3.88628868,27.6643852 C3.40808813,27.9404744 3.24236241,28.5486872 3.52042999,29.0303144 Z M0.972205098,19.5202096 C0.972205098,20.0724943 1.41592174,20.5202096 1.97201259,20.5202096 L4.97239761,20.5202096 C5.52457604,20.5202096 5.9722051,20.0763447 5.9722051,19.5202096 C5.9722051,18.9679248 5.52848845,18.5202096 4.97239761,18.5202096 L1.97201259,18.5202096 C1.41983416,18.5202096 0.972205098,18.9640744 0.972205098,19.5202096 Z M3.52042999,10.0101048 C3.24428762,10.4883974 3.40469988,11.0979885 3.88628868,11.3760339 L6.48469833,12.8762264 C6.96289888,13.1523157 7.57248942,12.991732 7.85055701,12.5101048 C8.12669939,12.0318122 7.96628713,11.4222211 7.48469833,11.1441756 L4.88628868,9.64398313 C4.40808813,9.36789391 3.79849758,9.52847759 3.52042999,10.0101048 Z M10.4823099,3.0482249 C10.0040173,3.32436727 9.8381428,3.93249478 10.1161882,4.41408358 L11.6163807,7.01249323 C11.8924699,7.49069378 12.5006827,7.6564195 12.9823099,7.37835192 C13.4606025,7.10220954 13.626477,6.49408203 13.3484315,6.01249323 L11.848239,3.41408358 C11.5721498,2.93588304 10.9639371,2.77015731 10.4823099,3.0482249 Z" id="Aura" fill="#FFFFFF"></path>
        </g>
    </g>
</svg>