<?xml version="1.0" encoding="UTF-8"?>
<svg width="51px" height="43px" viewBox="0 0 51 43" version="1.1" xmlns="http://www.w3.org/2000/svg" xmlns:xlink="http://www.w3.org/1999/xlink">
    <!-- Generator: Sketch 40.3 (33839) - http://www.bohemiancoding.com/sketch -->
    <title>Lightnings</title>
    <desc>Created with Sketch.</desc>
    <defs>
        <path d="M40,26 C43.8659934,26 47,22.8659934 47,19 C47,15.1340066 43.8659934,12 40,12 C36.4735279,12 33.5561185,14.6077057 33.0708888,18 L33,18 C33,14.1850174 36.0518474,11.0828323 39.8473555,11.0016314 C38.8860335,4.7706523 33.5001399,0 27,0 C21.9088078,0 17.5011726,2.92665381 15.3676948,7.18936105 C17.4642593,7.78427116 19,9.71278975 19,12 C19,12.3261971 18.9687632,12.6450985 18.9091178,12.9538761 C18.4141712,10.1388894 15.956868,8 13,8 C10.3845572,8 8.15997172,9.67345844 7.33857457,12.0080444 C7.22638794,12.0027017 7.11350948,12 7,12 C3.13400656,12 0,15.1340066 0,19 C0,22.8659934 3.13400656,26 7,26 L40,26 Z" id="path-1"></path>
        <mask id="mask-2" maskContentUnits="userSpaceOnUse" maskUnits="objectBoundingBox" x="-2" y="-2" width="51" height="30">
            <rect x="-2" y="-2" width="51" height="30" fill="white"></rect>
            <use xlink:href="#path-1" fill="black"></use>
        </mask>
    </defs>
    <g id="Page-1" stroke="none" stroke-width="1" fill="none" fill-rule="evenodd">
        <g id="Lightnings" transform="translate(2.000000, 2.500000)">
            <use id="Cloud" stroke="#FFFFFF" mask="url(#mask-2)" stroke-width="4" xlink:href="#path-1"></use>
            <g id="Drops+bolt" transform="translate(10.000000, 30.000000)" fill="#FFFFFF">
                <path d="M6.79689838,6.90283811 C6.93942603,7.43475849 6.59672553,7.84829006 6.17359873,7.96166655 C5.75047193,8.07504305 5.22910289,7.82177442 5.10439119,7.35634407 C4.9796795,6.89091371 5.44982851,5.91318412 5.44982851,5.91318412 C5.50995314,5.77711548 5.66074802,5.73529505 5.79478792,5.83005088 C5.79478792,5.83005088 6.65437072,6.37091773 6.79689838,6.90283811 Z M26.5969714,7.32209775 C26.8186811,8.14952945 26.3393218,8.77840378 25.7348549,8.9403702 C25.1303881,9.10233661 24.3731,8.69396618 24.179104,7.96996341 C23.985108,7.24596063 24.6225002,5.76758896 24.6225002,5.76758896 C24.708566,5.54833437 24.9271701,5.47978289 25.122804,5.63063006 C25.122804,5.63063006 26.3752617,6.49466606 26.5969714,7.32209775 Z M22.0661778,2.90283811 C22.2087054,3.43475849 21.8660049,3.84829006 21.4428781,3.96166655 C21.0197513,4.07504305 20.4983823,3.82177442 20.3736706,3.35634407 C20.2489589,2.89091371 20.7191079,1.91318412 20.7191079,1.91318412 C20.7792325,1.77711548 20.9300274,1.73529505 21.0640673,1.83005088 C21.0640673,1.83005088 21.9236501,2.37091773 22.0661778,2.90283811 Z M3.06726217,2.82209775 C3.28897185,3.64952945 2.80961257,4.27840378 2.20514572,4.4403702 C1.60067886,4.60233661 0.843390732,4.19396618 0.649394754,3.46996341 C0.455398795,2.74596063 1.09279099,1.26758896 1.09279099,1.26758896 C1.17885679,1.04833437 1.3974609,0.979782889 1.59309479,1.13063006 C1.59309479,1.13063006 2.84555248,1.99466606 3.06726217,2.82209775 Z" id="Drops_2"></path>
                <path d="M11.5145386,5.7 L13.9461802,5.7 L12.5783818,10.5 L15.7699115,4.8 L13.3382698,4.8 L14.7060683,1.77635684e-15 L11.5145386,5.7 Z" id="Lightning" transform="translate(13.642225, 5.250000) rotate(-45.000000) translate(-13.642225, -5.250000) "></path>
            </g>
        </g>
    </g>
</svg>