<?xml version="1.0" encoding="UTF-8"?>
<svg width="42px" height="26px" viewBox="0 0 42 26" version="1.1" xmlns="http://www.w3.org/2000/svg" xmlns:xlink="http://www.w3.org/1999/xlink">
    <!-- Generator: Sketch 40.3 (33839) - http://www.bohemiancoding.com/sketch -->
    <title>Windy</title>
    <desc>Created with Sketch.</desc>
    <defs></defs>
    <g id="Page-1" stroke="none" stroke-width="1" fill="none" fill-rule="evenodd">
        <g id="Windy" fill="#FFFFFF">
            <path d="M8,10 L28,10 C30.7614239,10 33,7.76142389 33,5 C33,2.23857611 30.7614239,0 28,0 C25.2385761,0 23,2.23857611 23,5 C23,5.55228478 23.4477152,6 24,6 C24.5522848,6 25,5.55228478 25,5 C25,3.34314567 26.3431457,2 28,2 C29.6568543,2 31,3.34314567 31,5 C31,6.65685433 29.6568543,8 28,8 L23.4998169,8 L8,8 C7.44771522,8 7,8.44771522 7,9 C7,9.55228478 7.44771522,10 8,10 Z" id="Rectangle-64"></path>
            <path d="M5,24 L22,24 C24.2091391,24 26,22.2091391 26,20 C26,17.7908609 24.2091391,16 22,16 C19.7908609,16 18,17.7908609 18,20 C18,20.5522848 18.4477152,21 19,21 C19.5522848,21 20,20.5522848 20,20 C20,18.8954304 20.8954304,18 22,18 C23.1045696,18 24,18.8954304 24,20 C24,21.1045696 23.1045696,22 22,22 L17.7675644,22 L5,22 C4.44771522,22 4,22.4477152 4,23 C4,23.5522848 4.44771522,24 5,24 Z" id="Rectangle-64" transform="translate(15.000000, 20.000000) scale(1, -1) translate(-15.000000, -20.000000) "></path>
            <path d="M1,12 L35,12 C38.8659934,12 42,15.1340066 42,19 C42,22.8659934 38.8659934,26 35,26 C31.1340066,26 28,22.8659934 28,19 C28,17.751913 28.3266385,16.5801165 28.8990939,15.5654323 C28.906644,15.5498091 28.9145885,15.5344122 28.9229144,15.5192545 C29.0929132,15.2097674 29.4219536,15 29.7999878,15 C30.3522726,15 30.7999878,15.4477152 30.7999878,16 C30.7999878,16.1973103 30.7428432,16.3812738 30.6442012,16.5362432 C30.6453756,16.5364807 30.6465562,16.5367183 30.6477429,16.5369559 C30.2354186,17.263977 30,18.104496 30,19 C30,21.7614239 32.2385761,24 35,24 C37.7614239,24 40,21.7614239 40,19 C40,16.2385761 37.7614239,14 35,14 L28.5505086,14 L1,14 C0.447715223,14 0,13.5522848 0,13 C0,12.4477152 0.447715223,12 1,12 Z" id="Rectangle-64"></path>
        </g>
    </g>
</svg>